<svg width="564" height="197" viewBox="0 0 564 197" fill="none" xmlns="http://www.w3.org/2000/svg">
<path d="M254 197L61 149L0 0C0 0 93.8636 14.9932 145 45C146.238 45.7266 147.459 46.4409 148.663 47.1445L140 0C140 0 182.128 14.9932 205.079 45C206.052 46.2719 207 47.5061 207.926 48.7111C220.621 65.2289 229.114 76.279 238.291 104C248.63 135.229 254 197 254 197Z" fill="white"/>
<path d="M310 197L503 149L564 0C564 0 470.136 14.9932 419 45C417.762 45.7266 416.541 46.4409 415.337 47.1445L424 0C424 0 381.872 14.9932 358.921 45C357.948 46.2719 357 47.5061 356.074 48.7111C343.379 65.2289 334.886 76.279 325.709 104C315.37 135.229 310 197 310 197Z" fill="white"/>
</svg>
